<?xml version="1.0" encoding="UTF-8"?>
<svg width="200" height="60" viewBox="0 0 200 60" fill="none" xmlns="http://www.w3.org/2000/svg">
  <path d="M20 10H40C45.5228 10 50 14.4772 50 20V40C50 45.5228 45.5228 50 40 50H20C14.4772 50 10 45.5228 10 40V20C10 14.4772 14.4772 10 20 10Z" fill="#DC2626"/>
  <path d="M65 15H180C182.761 15 185 17.2386 185 20V40C185 42.7614 182.761 45 180 45H65C62.2386 45 60 42.7614 60 40V20C60 17.2386 62.2386 15 65 15Z" fill="#DC2626"/>
  <text x="70" y="35" font-family="Arial" font-size="20" font-weight="bold" fill="white">GEMURA</text>
  <text x="20" y="35" font-family="Arial" font-size="20" font-weight="bold" fill="white">G</text>
</svg>